<svg width="160" height="160" viewBox="0 0 160 160" fill="none" xmlns="http://www.w3.org/2000/svg">
  <defs>
    <linearGradient id="bg" x1="24" y1="20" x2="136" y2="144" gradientUnits="userSpaceOnUse">
      <stop stop-color="#0F766E"/>
      <stop offset="1" stop-color="#22C55E"/>
    </linearGradient>
    <linearGradient id="shoulder" x1="80" y1="84" x2="80" y2="160" gradientUnits="userSpaceOnUse">
      <stop stop-color="#F8FAFC"/>
      <stop offset="1" stop-color="#D7E3F1"/>
    </linearGradient>
  </defs>
  <rect width="160" height="160" rx="80" fill="url(#bg)"/>
  <circle cx="80" cy="80" r="72" fill="white" fill-opacity="0.14"/>
  <circle cx="80" cy="58" r="24" fill="#F8FAFC"/>
  <path d="M36 138C36 112.49 56.4903 92 82 92H78C103.51 92 124 112.49 124 138V160H36V138Z" fill="url(#shoulder)"/>
  <path d="M80 86C67.2975 86 56.8728 76.3421 56.1198 63.8388C55.9954 65.2256 55.9954 66.7744 56.1198 68.1612C56.8728 80.6645 67.2975 90.3224 80 90.3224C92.7025 90.3224 103.127 80.6645 103.88 68.1612C104.005 66.7744 104.005 65.2256 103.88 63.8388C103.127 76.3421 92.7025 86 80 86Z" fill="#C7D2E0" fill-opacity="0.55"/>
</svg>
